<svg width="22" height="28" viewBox="0 0 22 28" fill="none" xmlns="http://www.w3.org/2000/svg">
<path d="M18 0.667346C20.0251 0.667346 21.6667 2.30897 21.6667 4.33401V23.665C21.6667 25.6901 20.0251 27.3317 18 27.3317H3.99992C1.97487 27.3317 0.333252 25.6901 0.333252 23.665V4.33401C0.333252 2.30897 1.97487 0.667346 3.99992 0.667346L4.38848 0.666656V11.5562C4.38848 12.5536 5.44231 12.9082 6.14659 12.5419L6.26696 12.4698L9.0576 10.8735L11.9116 12.5126C12.5054 12.9236 13.5922 12.6471 13.7112 11.7255L13.7218 11.5562V0.666656L18 0.667346ZM11.7218 0.666656V10.1009L9.55968 8.85838C9.25736 8.71368 8.8462 8.71697 8.50261 8.88841L8.36001 8.97223L6.38848 10.1V0.666656H11.7218Z" fill="#424242"/>
</svg>
