<svg width="124" height="24" viewBox="0 0 124 24" fill="none" xmlns="http://www.w3.org/2000/svg">
<path d="M12 6V0H6L0 6H6V12L12 6Z" fill="#FF6F2C"/>
<path d="M24 6V0H18L12 6H18V12L24 6Z" fill="#FF6F2C"/>
<path d="M24 18V12H18L12 18H18V24L24 18Z" fill="#FF6F2C"/>
<path d="M12 18V12H6L0 18H6V24L12 18Z" fill="#FF6F2C"/>
<path d="M30 17.3V4H39.405V6.242H32.508V9.681H38.835V11.923H32.508V17.3H30Z" fill="black"/>
<path d="M49.4809 17.3H47.0489C46.7449 16.92 46.5929 16.4197 46.5929 15.799C45.9343 16.977 44.8829 17.566 43.4389 17.566C42.5016 17.566 41.7353 17.3 41.1399 16.768C40.5573 16.2233 40.2659 15.5077 40.2659 14.621C40.2659 13.7217 40.5763 13.0187 41.1969 12.512C41.8303 11.9927 42.6409 11.657 43.6289 11.505L46.4599 11.068V10.707C46.4599 9.757 45.8836 9.282 44.7309 9.282C44.1989 9.282 43.7809 9.38333 43.4769 9.586C43.1856 9.78867 43.0399 10.042 43.0399 10.346C43.0399 10.422 43.0526 10.498 43.0779 10.574L40.9309 11.296C40.8169 11.0427 40.7599 10.7767 40.7599 10.498C40.7599 9.72533 41.1209 9.054 41.8429 8.484C42.5649 7.90133 43.5276 7.61 44.7309 7.61C46.0736 7.61 47.0933 7.895 47.7899 8.465C48.4993 9.035 48.8539 9.89 48.8539 11.03V14.963C48.8539 15.913 49.0629 16.692 49.4809 17.3ZM44.0089 15.628C44.7309 15.628 45.3199 15.3937 45.7759 14.925C46.2319 14.4437 46.4599 13.766 46.4599 12.892V12.721L44.1799 13.101C43.1286 13.2783 42.6029 13.7407 42.6029 14.488C42.6029 14.8553 42.7296 15.1403 42.9829 15.343C43.2363 15.533 43.5783 15.628 44.0089 15.628Z" fill="black"/>
<path d="M51.1479 17.3V4H53.5419V17.3H51.1479Z" fill="black"/>
<path d="M62.832 13.595L64.77 14.849C63.858 16.6603 62.3887 17.566 60.362 17.566C58.9433 17.566 57.759 17.11 56.809 16.198C55.8717 15.2733 55.403 14.07 55.403 12.588C55.403 11.1187 55.8843 9.92167 56.847 8.997C57.8097 8.07233 58.9813 7.61 60.362 7.61C61.4007 7.61 62.2937 7.838 63.041 8.294C63.801 8.73733 64.3457 9.36433 64.675 10.175L62.718 11.467C62.224 10.3903 61.4323 9.852 60.343 9.852C59.621 9.852 59.0193 10.1053 58.538 10.612C58.0693 11.106 57.835 11.7647 57.835 12.588C57.835 13.424 58.0693 14.089 58.538 14.583C59.0067 15.077 59.6083 15.324 60.343 15.324C60.951 15.324 61.445 15.1847 61.825 14.906C62.2177 14.6147 62.5533 14.1777 62.832 13.595Z" fill="black"/>
<path d="M74.6083 8.94C75.6343 9.814 76.1473 11.03 76.1473 12.588C76.1473 14.146 75.6343 15.3683 74.6083 16.255C73.595 17.129 72.3916 17.566 70.9983 17.566C69.605 17.566 68.3953 17.129 67.3693 16.255C66.356 15.3683 65.8493 14.146 65.8493 12.588C65.8493 11.03 66.356 9.814 67.3693 8.94C68.3953 8.05333 69.605 7.61 70.9983 7.61C72.3916 7.61 73.595 8.05333 74.6083 8.94ZM69.0793 14.583C69.624 15.077 70.2636 15.324 70.9983 15.324C71.733 15.324 72.3663 15.077 72.8983 14.583C73.443 14.0763 73.7153 13.4113 73.7153 12.588C73.7153 11.7647 73.443 11.106 72.8983 10.612C72.3663 10.1053 71.733 9.852 70.9983 9.852C70.2636 9.852 69.624 10.1053 69.0793 10.612C68.5473 11.106 68.2813 11.7647 68.2813 12.588C68.2813 13.4113 68.5473 14.0763 69.0793 14.583Z" fill="black"/>
<path d="M86.9071 10.878V17.3H84.5131V11.866C84.5131 10.5233 83.8734 9.852 82.5941 9.852C81.9607 9.852 81.4351 10.099 81.0171 10.593C80.6117 11.087 80.4091 11.7267 80.4091 12.512V17.3H78.0151V7.876H80.4091V9.396C81.1817 8.20533 82.2457 7.61 83.6011 7.61C84.6017 7.61 85.3997 7.90767 85.9951 8.503C86.6031 9.09833 86.9071 9.89 86.9071 10.878Z" fill="black"/>
<path d="M89.1479 17.3V4H91.5419V17.3H89.1479Z" fill="black"/>
<path d="M102.603 17.3H100.171C99.867 16.92 99.715 16.4197 99.715 15.799C99.0563 16.977 98.005 17.566 96.561 17.566C95.6237 17.566 94.8573 17.3 94.262 16.768C93.6793 16.2233 93.388 15.5077 93.388 14.621C93.388 13.7217 93.6983 13.0187 94.319 12.512C94.9523 11.9927 95.763 11.657 96.751 11.505L99.582 11.068V10.707C99.582 9.757 99.0057 9.282 97.853 9.282C97.321 9.282 96.903 9.38333 96.599 9.586C96.3077 9.78867 96.162 10.042 96.162 10.346C96.162 10.422 96.1747 10.498 96.2 10.574L94.053 11.296C93.939 11.0427 93.882 10.7767 93.882 10.498C93.882 9.72533 94.243 9.054 94.965 8.484C95.687 7.90133 96.6497 7.61 97.853 7.61C99.1957 7.61 100.215 7.895 100.912 8.465C101.621 9.035 101.976 9.89 101.976 11.03V14.963C101.976 15.913 102.185 16.692 102.603 17.3ZM97.131 15.628C97.853 15.628 98.442 15.3937 98.898 14.925C99.354 14.4437 99.582 13.766 99.582 12.892V12.721L97.302 13.101C96.2507 13.2783 95.725 13.7407 95.725 14.488C95.725 14.8553 95.8517 15.1403 96.105 15.343C96.3583 15.533 96.7003 15.628 97.131 15.628Z" fill="black"/>
<path d="M104.27 17.3V4H106.664V9.035C107.411 8.085 108.444 7.61 109.761 7.61C111.066 7.61 112.142 8.05967 112.991 8.959C113.84 9.84567 114.264 11.0553 114.264 12.588C114.264 14.108 113.827 15.3177 112.953 16.217C112.079 17.1163 111.002 17.566 109.723 17.566C108.38 17.566 107.361 17.091 106.664 16.141V17.3H104.27ZM107.253 14.564C107.76 15.0707 108.399 15.324 109.172 15.324C109.945 15.324 110.578 15.0707 111.072 14.564C111.579 14.0447 111.832 13.386 111.832 12.588C111.832 11.79 111.579 11.1377 111.072 10.631C110.578 10.1117 109.945 9.852 109.172 9.852C108.399 9.852 107.76 10.1117 107.253 10.631C106.759 11.1377 106.512 11.79 106.512 12.588C106.512 13.386 106.759 14.0447 107.253 14.564Z" fill="black"/>
<path d="M118.108 10.194C118.108 10.7767 118.849 11.22 120.331 11.524C121.433 11.752 122.231 12.1003 122.725 12.569C123.232 13.025 123.485 13.6457 123.485 14.431C123.485 15.343 123.15 16.0967 122.478 16.692C121.807 17.2747 120.901 17.566 119.761 17.566C118.672 17.566 117.766 17.3 117.044 16.768C116.335 16.236 115.803 15.5583 115.448 14.735L117.367 13.519C117.583 14.1397 117.893 14.6337 118.298 15.001C118.716 15.3683 119.217 15.552 119.799 15.552C120.192 15.552 120.534 15.4633 120.825 15.286C121.129 15.096 121.281 14.8363 121.281 14.507C121.281 14.203 121.123 13.9623 120.806 13.785C120.49 13.595 119.977 13.4303 119.267 13.291C117.076 12.8603 115.98 11.8787 115.98 10.346C115.98 9.49733 116.322 8.83233 117.006 8.351C117.69 7.857 118.52 7.61 119.495 7.61C120.496 7.61 121.294 7.8 121.889 8.18C122.497 8.56 122.998 9.16167 123.39 9.985L121.661 11.011C121.231 9.909 120.521 9.358 119.533 9.358C118.583 9.358 118.108 9.63667 118.108 10.194Z" fill="black"/>
</svg>
