<svg width="32" height="32" viewBox="0 0 32 32" fill="none" xmlns="http://www.w3.org/2000/svg">
<path d="M3.99996 22.6667H28C28.7363 22.6667 29.3333 23.2636 29.3333 24C29.3333 24.6838 28.8186 25.2473 28.1555 25.3244L28 25.3333H3.99996C3.26358 25.3333 2.66663 24.7364 2.66663 24C2.66663 23.3162 3.18135 22.7526 3.84446 22.6756L3.99996 22.6667H28H3.99996ZM3.9998 14.6667L27.9998 14.6638C28.7362 14.6637 29.3333 15.2606 29.3333 15.9969C29.3333 16.6807 28.8187 17.2443 28.1556 17.3214L28.0001 17.3304L4.00012 17.3333C3.26374 17.3334 2.66663 16.7365 2.66663 16.0002C2.66663 15.3164 3.18121 14.7527 3.84431 14.6756L3.9998 14.6667L27.9998 14.6638L3.9998 14.6667ZM3.99996 6.66666H28C28.7363 6.66666 29.3333 7.26361 29.3333 7.99999C29.3333 8.68377 28.8186 9.24733 28.1555 9.32435L28 9.33332H3.99996C3.26358 9.33332 2.66663 8.73637 2.66663 7.99999C2.66663 7.31621 3.18135 6.75265 3.84446 6.67563L3.99996 6.66666H28H3.99996Z" fill="#424242"/>
</svg>
