<svg width="320" height="205" viewBox="0 0 320 205" fill="none" xmlns="http://www.w3.org/2000/svg">
<path d="M134.815 55.5779C141.373 55.5779 146.697 52.5115 146.697 48.7211C146.697 44.9308 141.373 41.8644 134.815 41.8644C128.256 41.8644 122.933 44.9308 122.933 48.7211C122.933 52.5115 128.256 55.5779 134.815 55.5779Z" fill="#D74D26"/>
<path d="M146.08 72.9966L137.881 55.3437C133.644 55.9825 131.152 58.5165 132.281 60.9441L136.37 69.7812C137.519 72.2087 141.864 73.678 146.08 72.9966ZM123.529 24.4458L131.727 42.0987C135.965 41.4598 138.456 38.9258 137.328 36.4983L133.239 27.6612C132.089 25.2336 127.767 23.7643 123.529 24.4458ZM165.607 30.9405L143.205 43.8874C146.314 45.6761 151.297 45.6761 154.406 43.8874L165.607 37.4352C168.694 35.6252 168.694 32.7292 165.607 30.9405ZM104.024 66.5019L126.425 53.555C123.316 51.7662 118.333 51.7662 115.224 53.555L104.024 60.0071C100.915 61.8171 100.915 64.7131 104.024 66.5019ZM92.759 42.2264L123.359 46.975C124.487 44.5475 121.996 42.0135 117.758 41.3747L102.469 39.011C98.2103 38.3296 93.8876 39.7989 92.759 42.2264ZM176.893 55.2372L146.293 50.4886C145.164 52.9161 147.656 55.4501 151.893 56.089L167.182 58.4526C171.399 59.1128 175.743 57.686 176.893 55.2372Z" fill="white"/>
<path d="M67.6103 94.3761C74.1689 94.3761 79.4925 91.3097 79.4925 87.5193C79.4925 83.7289 74.1689 80.6626 67.6103 80.6626C61.0516 80.6626 55.7281 83.7289 55.7281 87.5193C55.7281 91.3097 61.0516 94.3761 67.6103 94.3761Z" fill="#D74D26"/>
<path d="M78.874 111.816L70.6758 94.163C66.4382 94.8018 63.9468 97.3358 65.0754 99.7634L69.1639 108.6C70.3138 111.007 74.6791 112.476 78.874 111.816ZM56.3448 63.2438L64.543 80.8967C68.7806 80.2579 71.272 77.7239 70.1434 75.2963L66.0549 66.4592C64.905 64.0317 60.5823 62.5837 56.3448 63.2438ZM98.4221 69.7385L76.0206 82.6854C79.1296 84.4741 84.1124 84.4741 87.2214 82.6854L98.4221 76.2333C101.489 74.4233 101.489 71.5272 98.4221 69.7385ZM36.8392 105.3L59.2408 92.353C56.1318 90.5643 51.149 90.5643 48.04 92.353L36.8392 98.8051C33.7303 100.615 33.7303 103.511 36.8392 105.3ZM25.5533 81.0032L56.1531 85.7518C57.2817 83.3242 54.7903 80.7902 50.5527 80.1514L35.2635 77.7878C31.0259 77.1276 26.6819 78.5756 25.5533 81.0032ZM109.687 94.014L79.087 89.2653C77.9584 91.6929 80.4498 94.2269 84.6874 94.8657L99.9766 97.2294C104.193 97.9108 108.558 96.4841 109.687 94.014Z" fill="white"/>
<path d="M202.424 39.0323C202.424 33.1764 198.548 27.3418 190.818 22.87L162.816 6.70768C147.357 -2.23589 122.293 -2.23589 106.834 6.70768L11.6274 61.6681C3.89759 66.1399 0.022049 71.9958 0.022049 77.8517V97.2507C0.022049 103.085 3.89759 108.941 11.6274 113.392L39.6293 129.554C55.0889 138.498 80.1522 138.498 95.6118 129.554L190.818 74.615C198.548 70.1432 202.424 64.2873 202.424 58.4314V39.0323ZM190.818 55.1733L95.6118 110.112C80.1522 119.056 55.0889 119.056 39.6293 110.112L11.6274 93.9714C8.26291 92.0337 5.66502 89.8616 3.74854 87.5193C5.64372 85.1769 8.26291 82.9836 11.6274 81.0671L106.834 26.128C122.293 17.1844 147.357 17.1844 162.816 26.128L190.818 42.2903C194.183 44.2281 196.781 46.4001 198.697 48.7425C196.759 51.0636 194.162 53.2569 190.818 55.1733Z" fill="#D74D26"/>
<path d="M180.895 19.399L161.454 8.26214L143.204 3.02376L134.793 2.5127V19.399C144.929 19.399 155.065 21.6136 162.795 26.0854L190.797 42.2477C192.905 43.4828 194.736 44.803 196.27 46.1872L199.89 33.9856L180.895 19.399Z" fill="#333333"/>
<path d="M39.6286 110.155L11.6266 93.9927C8.26216 92.055 5.66427 89.883 3.74779 87.5406L2.91732 80.3218L0 77.873V97.2721C0 103.107 3.87554 108.963 11.6053 113.413L39.6073 129.575C47.3371 134.047 57.4731 136.262 67.6092 136.262V116.863C57.4731 116.841 47.3584 114.627 39.6286 110.155Z" fill="#333333"/>
<path d="M190.819 22.87L162.817 6.70768C147.358 -2.23589 122.294 -2.23589 106.835 6.70768L11.6281 61.6681C-3.83149 70.6117 -3.83149 85.0704 11.6281 93.9927L39.63 110.155C55.0896 119.099 80.1529 119.099 95.6125 110.155L190.819 55.2159C206.279 46.2724 206.279 31.771 190.819 22.87ZM90.0122 106.918C84.0498 110.368 76.0857 112.263 67.6106 112.263C59.1355 112.263 51.1928 110.368 45.2091 106.918L17.2072 90.756C11.2448 87.3063 7.92293 82.7068 7.92293 77.8091C7.92293 72.9327 11.2022 68.3332 17.2072 64.8622L112.414 9.92311C118.376 6.47345 126.34 4.57826 134.815 4.57826C143.29 4.57826 151.233 6.47345 157.217 9.92311L185.219 26.0854C191.181 29.5351 194.503 34.1346 194.503 39.0323C194.503 43.93 191.224 48.5083 185.219 51.9792L90.0122 106.918Z" fill="#FF6F2C"/>
<path d="M93.8873 157.961C92.3542 158.876 90.2247 158.77 87.8611 157.428L71.0599 147.739C66.4391 145.056 62.6487 138.54 62.6487 133.174C62.6487 130.342 63.6921 128.425 65.3531 127.616C65.3957 127.595 215.988 40.6507 216.01 40.6294C217.543 39.5647 219.758 39.6073 222.228 41.0127L239.029 50.7015C243.65 53.3846 247.44 59.9006 247.44 65.2668C247.44 67.9712 246.46 69.8663 244.927 70.7394C244.842 70.8033 93.9938 157.897 93.8873 157.961Z" fill="#FF6F2C"/>
<path d="M247.461 65.2668C247.461 62.5837 246.502 59.6238 245.012 56.9833L79.4918 152.552L87.903 157.407C90.2666 158.77 92.3961 158.855 93.9292 157.939C94.0144 157.875 244.863 70.8033 244.969 70.7181C246.502 69.8876 247.461 67.9711 247.461 65.2668Z" fill="#D74D26"/>
<path d="M87.8828 138.029L71.0817 128.34C66.4608 125.657 62.6705 127.829 62.6705 133.195C62.6705 138.562 66.4182 145.078 71.0817 147.761L87.8828 157.449C92.5037 160.133 96.2941 157.961 96.2941 152.594C96.2941 147.207 92.525 140.691 87.8828 138.029Z" fill="#333333"/>
<path d="M71.0816 129.916C67.2061 127.701 64.0971 129.49 64.0971 133.962C64.0971 138.434 67.2274 143.842 71.0816 146.1C74.9359 148.314 78.0662 146.526 78.0662 142.054C78.0662 137.582 74.9572 132.173 71.0816 129.916ZM71.0816 144.481C67.9727 142.693 65.4813 138.349 65.4813 134.792C65.4813 131.236 67.9727 129.767 71.0816 131.556C74.1906 133.344 76.682 137.688 76.682 141.245C76.682 144.801 74.1693 146.27 71.0816 144.481Z" fill="#FF6F2C"/>
<path d="M73.0611 141.436C74.1471 140.797 74.1684 138.753 73.0611 136.858C71.9751 134.963 70.1864 133.941 69.1004 134.579C68.0144 135.218 67.9931 137.263 69.1004 139.158C70.1864 141.053 71.9751 142.075 73.0611 141.436Z" fill="white"/>
<path d="M252.401 123.464C258.96 123.464 264.283 120.397 264.283 116.607C264.283 112.817 258.96 109.75 252.401 109.75C245.842 109.75 240.519 112.817 240.519 116.607C240.519 120.397 245.842 123.464 252.401 123.464Z" fill="#D74D26"/>
<path d="M263.688 140.904L255.49 123.251C251.252 123.89 248.761 126.424 249.889 128.851L253.978 137.688C255.106 140.095 259.45 141.564 263.688 140.904ZM241.137 92.3317L249.335 109.985C253.573 109.346 256.064 106.812 254.936 104.384L250.847 95.5472C249.697 93.1196 245.353 91.6929 241.137 92.3317ZM283.193 98.8265L260.792 111.773C263.901 113.562 268.884 113.562 271.993 111.773L283.193 105.321C286.302 103.511 286.302 100.615 283.193 98.8265ZM221.61 134.388L244.012 121.441C240.903 119.652 235.92 119.652 232.811 121.441L221.61 127.893C218.523 129.703 218.523 132.599 221.61 134.388ZM210.324 110.112L240.924 114.861C242.053 112.433 239.561 109.899 235.324 109.261L220.035 106.897C215.818 106.216 211.474 107.685 210.324 110.112ZM294.458 123.123L263.858 118.375C262.73 120.802 265.221 123.336 269.459 123.975L284.748 126.339C289.007 126.999 293.329 125.572 294.458 123.123Z" fill="white"/>
<path d="M185.218 162.262C191.777 162.262 197.1 159.196 197.1 155.405C197.1 151.615 191.777 148.548 185.218 148.548C178.66 148.548 173.336 151.615 173.336 155.405C173.336 159.196 178.66 162.262 185.218 162.262Z" fill="#D74D26"/>
<path d="M196.484 179.702L188.285 162.049C184.048 162.688 181.556 165.222 182.685 167.649L186.774 176.487C187.923 178.893 192.246 180.362 196.484 179.702ZM173.954 131.13L182.153 148.783C186.39 148.144 188.882 145.61 187.753 143.182L183.665 134.345C182.515 131.918 178.171 130.47 173.954 131.13ZM216.01 137.625L193.609 150.571C196.718 152.36 201.701 152.36 204.81 150.571L216.01 144.119C219.098 142.309 219.098 139.413 216.01 137.625ZM154.406 173.207L176.808 160.26C173.699 158.472 168.716 158.472 165.607 160.26L154.406 166.713C151.297 168.501 151.297 171.397 154.406 173.207ZM143.142 148.911L173.741 153.659C174.87 151.232 172.379 148.698 168.141 148.059L152.852 145.695C148.614 145.014 144.27 146.462 143.142 148.911ZM227.275 161.921L196.675 157.173C195.547 159.6 198.038 162.134 202.276 162.773L217.565 165.137C221.803 165.797 226.147 164.37 227.275 161.921Z" fill="white"/>
<path d="M319.99 106.918C319.99 101.062 316.115 95.2278 308.385 90.756L280.383 74.5937C264.923 65.6501 239.86 65.6501 224.4 74.5937L129.194 129.533C121.464 134.005 117.589 139.861 117.589 145.716V165.115C117.589 170.95 121.464 176.806 129.194 181.256L157.196 197.419C172.655 206.362 197.719 206.362 213.178 197.419L308.385 142.48C316.115 138.008 319.99 132.152 319.99 126.296V106.918ZM308.406 123.081L213.2 178.02C197.74 186.963 172.677 186.963 157.217 178.02L129.215 161.857C125.851 159.92 123.253 157.748 121.336 155.405C123.231 153.063 125.851 150.87 129.215 148.953L224.422 94.014C239.881 85.0705 264.945 85.0705 280.404 94.014L308.406 110.176C311.771 112.114 314.368 114.286 316.285 116.628C314.368 118.95 311.749 121.143 308.406 123.081Z" fill="#D74D26"/>
<path d="M298.461 87.285L279.019 76.1482L260.77 70.9098L252.359 70.3987V87.285C262.495 87.285 272.631 89.4996 280.361 93.9714L308.363 110.134C310.471 111.369 312.302 112.689 313.835 114.073L317.455 101.872C317.476 101.893 298.461 87.285 298.461 87.285Z" fill="#333333"/>
<path d="M157.217 178.041L129.215 161.879C125.851 159.941 123.253 157.769 121.336 155.427L120.506 148.208L117.589 145.759V165.158C117.589 170.993 121.464 176.849 129.194 181.299L157.196 197.461C164.926 201.933 175.062 204.148 185.198 204.148V184.749C175.083 184.727 164.947 182.513 157.217 178.041Z" fill="#333333"/>
<path d="M308.405 90.756L280.403 74.5937C264.944 65.6501 239.88 65.6501 224.421 74.5937L129.214 129.533C113.755 138.476 113.755 152.935 129.214 161.857L157.216 178.02C172.676 186.963 197.739 186.963 213.199 178.02L308.405 123.081C323.865 114.158 323.865 99.6996 308.405 90.756ZM207.598 174.804C201.636 178.254 193.672 180.149 185.197 180.149C176.722 180.149 168.779 178.254 162.795 174.804L134.793 158.642C128.831 155.192 125.509 150.593 125.509 145.695C125.509 140.819 128.788 136.219 134.793 132.748L230 77.8091C235.962 74.3595 243.926 72.4643 252.401 72.4643C260.877 72.4643 268.819 74.3595 274.803 77.8091L302.805 93.9714C308.767 97.4211 312.089 102.021 312.089 106.918C312.089 111.795 308.81 116.394 302.805 119.865L207.598 174.804Z" fill="#FF6F2C"/>
<path d="M63.0109 136.006L64.0757 130.768L65.3959 127.595L63.4581 123.954L58.241 128.958C58.241 128.979 63.0109 136.006 63.0109 136.006Z" fill="#333333"/>
</svg>
